simulation
nRows=55
nColumns=15
endheader
time  TH_x TH_y TH_z SC_y  SC_z  SC_x  AC_y  AC_z  AC_x  GH_y  GH_z  GH_yy  EL_x  PS_y
0.750170  0.000000  0.000000  0.000000  -16.057015  -7.806338  19.535818  76.933813  15.272218  4.845168  74.443744  48.114593  -71.391395  28.400974  38.476691
0.750398  0.000000  0.000000  0.000000  -16.057015  -7.806338  9.535818  76.076028  24.997732  7.327732  74.443744  48.114593  -71.391395  28.400974  38.476691
0.750625  0.000000  0.000000  0.000000  -16.057015  -7.806338  11.758040  76.311268  22.839694  6.747631  74.443744  48.114593  -71.391395  28.400974  38.476691
0.750852  0.000000  0.000000  0.000000  -16.057015  -7.806338  13.980262  76.519635  20.679622  6.185665  74.443744  48.114593  -71.391395  28.400974  38.476691
0.751080  0.000000  0.000000  0.000000  -16.057015  -7.806338  16.202484  76.702875  18.517779  5.639481  74.443744  48.114593  -71.391395  28.400974  38.476691
0.751307  0.000000  0.000000  0.000000  -16.057015  -7.806338  18.424706  76.862476  16.354408  5.106941  74.443744  48.114593  -71.391395  28.400974  38.476691
0.751534  0.000000  0.000000  0.000000  -16.057015  -7.806338  20.646929  76.999697  14.189728  4.586082  74.443744  48.114593  -71.391395  28.400974  38.476691
0.751762  0.000000  0.000000  0.000000  -16.057015  -7.806338  22.869151  77.115596  12.023945  4.075087  74.443744  48.114593  -71.391395  28.400974  38.476691
0.751989  0.000000  0.000000  0.000000  -16.057015  -7.806338  25.091373  77.211045  9.857248  3.572260  74.443744  48.114593  -71.391395  28.400974  38.476691
0.752216  0.000000  0.000000  0.000000  -16.057015  -7.806338  27.313595  77.286753  7.689816  3.076002  74.443744  48.114593  -71.391395  28.400974  38.476691
0.752444  0.000000  0.000000  0.000000  -16.057015  -7.806338  29.535818  77.343272  5.521820  2.584791  74.443744  48.114593  -71.391395  28.400974  38.476691
0.752671  0.000000  0.000000  0.000000  -26.998870  -12.942791  20.940204  80.071559  11.500505  -3.969443  67.235821  35.364156  -81.503234  20.348925  42.817784
0.752898  0.000000  0.000000  0.000000  -26.998870  -12.942791  10.940204  79.548815  21.343658  -2.127366  67.235821  35.364156  -81.503234  20.348925  42.817784
0.753126  0.000000  0.000000  0.000000  -26.998870  -12.942791  13.162426  79.696514  19.157775  -2.554003  67.235821  35.364156  -81.503234  20.348925  42.817784
0.753353  0.000000  0.000000  0.000000  -26.998870  -12.942791  15.384649  79.825368  16.970932  -2.969470  67.235821  35.364156  -81.503234  20.348925  42.817784
0.753580  0.000000  0.000000  0.000000  -26.998870  -12.942791  17.606871  79.936431  14.783268  -3.375364  67.235821  35.364156  -81.503234  20.348925  42.817784
0.753808  0.000000  0.000000  0.000000  -26.998870  -12.942791  19.829093  80.030587  12.594908  -3.773155  67.235821  35.364156  -81.503234  20.348925  42.817784
0.754035  0.000000  0.000000  0.000000  -26.998870  -12.942791  22.051315  80.108568  10.405971  -4.164210  67.235821  35.364156  -81.503234  20.348925  42.817784
0.754262  0.000000  0.000000  0.000000  -26.998870  -12.942791  24.273537  80.170969  8.216566  -4.549813  67.235821  35.364156  -81.503234  20.348925  42.817784
0.754490  0.000000  0.000000  0.000000  -26.998870  -12.942791  26.495760  80.218259  6.026798  -4.931181  67.235821  35.364156  -81.503234  20.348925  42.817784
0.754717  0.000000  0.000000  0.000000  -26.998870  -12.942791  28.717982  80.250788  3.836767  -5.309483  67.235821  35.364156  -81.503234  20.348925  42.817784
0.754944  0.000000  0.000000  0.000000  -26.998870  -12.942791  30.940204  80.268794  1.646571  -5.685849  67.235821  35.364156  -81.503234  20.348925  42.817784
0.755172  0.000000  0.000000  0.000000  -24.861212  -0.850268  26.893044  61.997770  3.405853  -12.878726  74.309908  43.203255  -77.992441  13.678037  39.796864
0.755399  0.000000  0.000000  0.000000  -24.861212  -0.850268  16.893044  61.345276  12.213440  -8.093730  74.309908  43.203255  -77.992441  13.678037  39.796864
0.755626  0.000000  0.000000  0.000000  -24.861212  -0.850268  19.115266  61.556311  10.261365  -9.176467  74.309908  43.203255  -77.992441  13.678037  39.796864
0.755854  0.000000  0.000000  0.000000  -24.861212  -0.850268  21.337489  61.728864  8.305748  -10.245913  74.309908  43.203255  -77.992441  13.678037  39.796864
0.756081  0.000000  0.000000  0.000000  -24.861212  -0.850268  23.559711  61.863914  6.347306  -11.304744  74.309908  43.203255  -77.992441  13.678037  39.796864
0.756308  0.000000  0.000000  0.000000  -24.861212  -0.850268  25.781933  61.962218  4.386730  -12.355545  74.309908  43.203255  -77.992441  13.678037  39.796864
0.756536  0.000000  0.000000  0.000000  -24.861212  -0.850268  28.004155  62.024326  2.424693  -13.400841  74.309908  43.203255  -77.992441  13.678037  39.796864
0.756763  0.000000  0.000000  0.000000  -24.861212  -0.850268  30.226377  62.050582  0.461851  -14.443108  74.309908  43.203255  -77.992441  13.678037  39.796864
0.756990  0.000000  0.000000  0.000000  -24.861212  -0.850268  32.448600  62.041133  -1.501143  -15.484799  74.309908  43.203255  -77.992441  13.678037  39.796864
0.757218  0.000000  0.000000  0.000000  -24.861212  -0.850268  34.670822  61.995926  -3.463640  -16.528363  74.309908  43.203255  -77.992441  13.678037  39.796864
0.757445  0.000000  0.000000  0.000000  -24.861212  -0.850268  36.893044  61.914710  -5.424987  -17.576263  74.309908  43.203255  -77.992441  13.678037  39.796864
0.757672  0.000000  0.000000  0.000000  -43.075732  -7.935111  4.298180  81.017099  20.098266  13.084474  51.994417  34.724802  -77.070694  29.397618  54.789775
0.757900  0.000000  0.000000  0.000000  -43.075732  -7.935111  -5.701820  80.255357  29.965898  14.877957  51.994417  34.724802  -77.070694  29.397618  54.789775
0.758127  0.000000  0.000000  0.000000  -43.075732  -7.935111  -3.479598  80.460601  27.775057  14.452954  51.994417  34.724802  -77.070694  29.397618  54.789775
0.758354  0.000000  0.000000  0.000000  -43.075732  -7.935111  -1.257376  80.643918  25.582967  14.044743  51.994417  34.724802  -77.070694  29.397618  54.789775
0.758581  0.000000  0.000000  0.000000  -43.075732  -7.935111  0.964846  80.807051  23.389786  13.651227  51.994417  34.724802  -77.070694  29.397618  54.789775
0.758809  0.000000  0.000000  0.000000  -43.075732  -7.935111  3.187069  80.951488  21.195651  13.270539  51.994417  34.724802  -77.070694  29.397618  54.789775
0.759036  0.000000  0.000000  0.000000  -43.075732  -7.935111  5.409291  81.078497  19.000689  12.901000  51.994417  34.724802  -77.070694  29.397618  54.789775
0.759263  0.000000  0.000000  0.000000  -43.075732  -7.935111  7.631513  81.189155  16.805013  12.541089  51.994417  34.724802  -77.070694  29.397618  54.789775
0.759491  0.000000  0.000000  0.000000  -43.075732  -7.935111  9.853735  81.284376  14.608725  12.189418  51.994417  34.724802  -77.070694  29.397618  54.789775
0.759718  0.000000  0.000000  0.000000  -43.075732  -7.935111  12.075957  81.364922  12.411921  11.844710  51.994417  34.724802  -77.070694  29.397618  54.789775
0.759945  0.000000  0.000000  0.000000  -43.075732  -7.935111  14.298180  81.431425  10.214688  11.505774  51.994417  34.724802  -77.070694  29.397618  54.789775
0.760173  0.000000  0.000000  0.000000  -17.942950  12.265616  5.923705  59.691870  18.067922  18.304327  70.068385  36.803991  -77.646923  30.445474  40.500028
0.760400  0.000000  0.000000  0.000000  -17.942950  12.265616  -4.076295  57.546376  26.612535  23.929246  70.068385  36.803991  -77.646923  30.445474  40.500028
0.760627  0.000000  0.000000  0.000000  -17.942950  12.265616  -1.854072  58.115153  24.731381  22.616558  70.068385  36.803991  -77.646923  30.445474  40.500028
0.760855  0.000000  0.000000  0.000000  -17.942950  12.265616  0.368150  58.628836  22.839139  21.343106  70.068385  36.803991  -77.646923  30.445474  40.500028
0.761082  0.000000  0.000000  0.000000  -17.942950  12.265616  2.590372  59.090589  20.937052  20.104694  70.068385  36.803991  -77.646923  30.445474  40.500028
0.761309  0.000000  0.000000  0.000000  -17.942950  12.265616  4.812594  59.503207  19.026256  18.897426  70.068385  36.803991  -77.646923  30.445474  40.500028
0.761537  0.000000  0.000000  0.000000  -17.942950  12.265616  7.034816  59.869146  17.107798  17.717672  70.068385  36.803991  -77.646923  30.445474  40.500028
0.761764  0.000000  0.000000  0.000000  -17.942950  12.265616  9.257039  60.190552  15.182651  16.562036  70.068385  36.803991  -77.646923  30.445474  40.500028
0.761991  0.000000  0.000000  0.000000  -17.942950  12.265616  11.479261  60.469284  13.251719  15.427322  70.068385  36.803991  -77.646923  30.445474  40.500028
0.762219  0.000000  0.000000  0.000000  -17.942950  12.265616  13.701483  60.706932  11.315852  14.310505  70.068385  36.803991  -77.646923  30.445474  40.500028
0.762446  0.000000  0.000000  0.000000  -17.942950  12.265616  15.923705  60.904838  9.375853  13.208710  70.068385  36.803991  -77.646923  30.445474  40.500028
